<svg width="22" height="22" viewBox="0 0 22 22" xmlns="http://www.w3.org/2000/svg">
    <defs>
        <filter color-interpolation-filters="auto" id="f1in8lo2oa">
            <feColorMatrix in="SourceGraphic" values="0 0 0 0 0.000000 0 0 0 0 0.000000 0 0 0 0 0.000000 0 0 0 1.000000 0"/>
        </filter>
    </defs>
    <g transform="translate(0 -10)" filter="url(#f1in8lo2oa)" fill="none" fill-rule="evenodd">
        <path d="M1.833 11.146a.688.688 0 0 0 0 1.375h.72c.905 0 1.704.59 1.97 1.456l2.473 8.034a3.437 3.437 0 0 0 3.285 2.427h6.006a3.438 3.438 0 0 0 3.293-2.45l1.454-4.847a2.52 2.52 0 0 0-2.415-3.245H5.937l-.1-.324a3.438 3.438 0 0 0-3.285-2.426h-.719zm6.477 10.46-1.95-6.335h12.26c.767 0 1.317.74 1.097 1.475l-1.454 4.847a2.063 2.063 0 0 1-1.976 1.47h-6.006c-.905 0-1.705-.591-1.971-1.456zm1.773 5.581a1.146 1.146 0 1 0 0 2.292 1.146 1.146 0 0 0 0-2.292zm-2.52 1.146a2.52 2.52 0 1 1 5.041 0 2.52 2.52 0 0 1-5.041 0zm9.854-1.146a1.146 1.146 0 1 0 0 2.292 1.146 1.146 0 0 0 0-2.292zm-2.521 1.146a2.52 2.52 0 1 1 5.042 0 2.52 2.52 0 0 1-5.042 0z" fill="#151E28"/>
    </g>
</svg>
