<svg width="21" height="21" viewBox="0 0 21 21" fill="none" xmlns="http://www.w3.org/2000/svg">
<path d="M4.37451 3.72862H16.2702V4.72862H4.37451V3.72862Z" fill="black" stroke="black" stroke-width="0.4"/>
<path fill-rule="evenodd" clip-rule="evenodd" d="M18.779 5.38651V1.48918C18.779 1.06987 18.4266 0.728622 17.9956 0.728622H2.29207C1.86066 0.728622 1.50965 1.06942 1.50965 1.48918V5.41907C0.825552 5.94544 0.409302 6.63685 0.409302 7.49509C0.409302 8.37876 0.844389 9.15983 1.50965 9.6688V18.969C1.50965 19.3874 1.86066 19.7286 2.29207 19.7286H17.9956C18.4266 19.7286 18.779 19.3874 18.779 18.969V9.90121C19.6432 9.42257 20.2354 8.5282 20.2354 7.49509C20.2354 6.47849 19.673 5.87496 18.779 5.38651ZM2.45793 18.832V10.1684C2.69408 10.2304 3.01523 10.2741 3.27159 10.2741C4.2456 10.2741 5.10475 9.79727 5.62207 9.07419C6.1394 9.79727 6.99947 10.2741 7.97255 10.2741C8.94656 10.2741 9.80571 9.79727 10.324 9.07419C10.8404 9.79727 11.7004 10.2741 12.6744 10.2741C13.6461 10.2741 14.5067 9.79727 15.0226 9.07419C15.5409 9.79727 16.3986 10.2741 17.3731 10.2741C17.5031 10.2741 17.7053 10.2527 17.8312 10.2358V18.832H2.45793ZM15.4862 7.49509C15.4862 8.47779 16.361 9.37841 17.3731 9.37841C18.3871 9.37841 19.3124 8.47779 19.3133 7.49509C19.3133 6.76621 18.8658 6.11584 18.1716 5.84195C17.9671 5.76165 17.8491 5.56761 17.8573 5.36644V1.52575H2.43358V5.56583C2.43358 5.72998 2.2397 5.89102 2.08671 5.98514C1.55192 6.31523 1.33323 6.8804 1.33323 7.49509C1.33323 8.47779 2.259 9.37841 3.27205 9.37841C4.28649 9.37841 5.16126 8.47779 5.16126 7.49509C5.16126 7.22076 5.33952 6.99817 5.62253 6.99817C5.90647 6.99817 6.08381 7.22031 6.08381 7.49509C6.08381 8.47779 6.9595 9.37841 7.97301 9.37841C8.98745 9.37841 9.86314 8.47779 9.86314 7.49509C9.86314 7.22076 10.0405 6.99817 10.3244 6.99817C10.606 6.99817 10.7857 7.22031 10.7857 7.49509C10.7857 8.47779 11.6605 9.37841 12.6744 9.37841C13.6866 9.37841 14.5636 8.47779 14.5636 7.49509C14.5636 7.22076 14.741 6.99817 15.0249 6.99817C15.307 6.99817 15.4862 7.22031 15.4862 7.49509Z" fill="black"/>
<path d="M18.779 5.38651H18.479V5.56446L18.6351 5.64978L18.779 5.38651ZM1.50965 5.41907L1.6926 5.65684L1.80965 5.56677V5.41907H1.50965ZM1.50965 9.6688H1.80965V9.52059L1.69194 9.43054L1.50965 9.6688ZM18.779 9.90121L18.6336 9.63877L18.479 9.72442V9.90121H18.779ZM2.45793 10.1684L2.53412 9.87824L2.15793 9.77947V10.1684H2.45793ZM2.45793 18.832H2.15793V19.132H2.45793V18.832ZM5.62207 9.07419L5.86606 8.89963L5.62207 8.5586L5.37809 8.89963L5.62207 9.07419ZM10.324 9.07419L10.5681 8.89983L10.3244 8.5586L10.0801 8.89942L10.324 9.07419ZM15.0226 9.07419L15.2665 8.89942L15.0221 8.55845L14.7784 8.89994L15.0226 9.07419ZM17.8312 10.2358H18.1312V9.89265L17.7911 9.93844L17.8312 10.2358ZM17.8312 18.832V19.132H18.1312V18.832H17.8312ZM19.3133 7.49509L19.6133 7.49537V7.49509H19.3133ZM18.1716 5.84195L18.2817 5.56288L18.2813 5.56271L18.1716 5.84195ZM17.8573 5.36644L18.1573 5.37877V5.36644H17.8573ZM17.8573 1.52575H18.1573V1.22575H17.8573V1.52575ZM2.43358 1.52575V1.22575H2.13358V1.52575H2.43358ZM2.08671 5.98514L1.92951 5.72962L1.92913 5.72985L2.08671 5.98514ZM18.479 1.48918V5.38651H19.079V1.48918H18.479ZM17.9956 1.02862C18.2695 1.02862 18.479 1.24407 18.479 1.48918H19.079C19.079 0.89567 18.5836 0.428622 17.9956 0.428622V1.02862ZM2.29207 1.02862H17.9956V0.428622H2.29207V1.02862ZM1.80965 1.48918C1.80965 1.24317 2.01817 1.02862 2.29207 1.02862V0.428622C1.70316 0.428622 1.20965 0.895675 1.20965 1.48918H1.80965ZM1.80965 5.41907V1.48918H1.20965V5.41907H1.80965ZM0.709302 7.49509C0.709302 6.74864 1.06613 6.13885 1.6926 5.65684L1.32671 5.18131C0.584973 5.75202 0.109302 6.52506 0.109302 7.49509H0.709302ZM1.69194 9.43054C1.0935 8.97269 0.709302 8.27644 0.709302 7.49509H0.109302C0.109302 8.48108 0.595275 9.34698 1.32736 9.90707L1.69194 9.43054ZM1.80965 18.969V9.6688H1.20965V18.969H1.80965ZM2.29207 19.4286C2.01806 19.4286 1.80965 19.2135 1.80965 18.969H1.20965C1.20965 19.5612 1.70327 20.0286 2.29207 20.0286V19.4286ZM17.9956 19.4286H2.29207V20.0286H17.9956V19.4286ZM18.479 18.969C18.479 19.213 18.2698 19.4286 17.9956 19.4286V20.0286C18.5834 20.0286 19.079 19.5618 19.079 18.969H18.479ZM18.479 9.90121V18.969H19.079V9.90121H18.479ZM19.9354 7.49509C19.9354 8.40863 19.4119 9.20771 18.6336 9.63877L18.9243 10.1636C19.8744 9.63743 20.5354 8.64776 20.5354 7.49509H19.9354ZM18.6351 5.64978C19.0626 5.8833 19.3854 6.13113 19.6018 6.42187C19.8135 6.70628 19.9354 7.0477 19.9354 7.49509H20.5354C20.5354 6.92588 20.3761 6.45724 20.0831 6.06362C19.7948 5.67632 19.3894 5.37817 18.9228 5.12324L18.6351 5.64978ZM2.15793 10.1684V18.832H2.75793V10.1684H2.15793ZM3.27159 9.97412C3.04196 9.97412 2.7464 9.93398 2.53412 9.87824L2.38175 10.4586C2.64176 10.5268 2.9885 10.5741 3.27159 10.5741V9.97412ZM5.37809 8.89963C4.91537 9.54639 4.14588 9.97412 3.27159 9.97412V10.5741C4.34533 10.5741 5.29413 10.0482 5.86606 9.24875L5.37809 8.89963ZM7.97255 9.97412C7.09914 9.97412 6.32875 9.54634 5.86606 8.89963L5.37809 9.24875C5.95005 10.0482 6.89979 10.5741 7.97255 10.5741V9.97412ZM10.0801 8.89942C9.61641 9.54641 8.84679 9.97412 7.97255 9.97412V10.5741C9.04633 10.5741 9.99501 10.0481 10.5678 9.24895L10.0801 8.89942ZM12.6744 9.97412C11.8 9.97412 11.0298 9.54628 10.5681 8.89983L10.0798 9.24854C10.651 10.0483 11.6009 10.5741 12.6744 10.5741V9.97412ZM14.7784 8.89994C14.3172 9.54633 13.5465 9.97412 12.6744 9.97412V10.5741C13.7458 10.5741 14.6962 10.0482 15.2668 9.24844L14.7784 8.89994ZM17.3731 9.97412C16.4985 9.97412 15.7302 9.54652 15.2665 8.89942L14.7788 9.24895C15.3515 10.048 16.2987 10.5741 17.3731 10.5741V9.97412ZM17.7911 9.93844C17.6676 9.95507 17.482 9.97412 17.3731 9.97412V10.5741C17.5242 10.5741 17.7429 10.5503 17.8712 10.5331L17.7911 9.93844ZM18.1312 18.832V10.2358H17.5312V18.832H18.1312ZM2.45793 19.132H17.8312V18.532H2.45793V19.132ZM17.3731 9.07841C16.5289 9.07841 15.7862 8.31438 15.7862 7.49509H15.1862C15.1862 8.6412 16.193 9.67841 17.3731 9.67841V9.07841ZM19.0133 7.49481C19.0125 8.30409 18.2295 9.07841 17.3731 9.07841V9.67841C18.5447 9.67841 19.6122 8.65149 19.6133 7.49537L19.0133 7.49481ZM18.0615 6.12101C18.644 6.35084 19.0133 6.89248 19.0133 7.49509H19.6133C19.6133 6.63994 19.0876 5.88084 18.2817 5.56288L18.0615 6.12101ZM17.5576 5.35411C17.5442 5.68089 17.7365 5.99336 18.0619 6.12119L18.2813 5.56271C18.1978 5.52995 18.154 5.45434 18.1571 5.37876L17.5576 5.35411ZM17.5573 1.52575V5.36644H18.1573V1.52575H17.5573ZM2.43358 1.82575H17.8573V1.22575H2.43358V1.82575ZM2.73358 5.56583V1.52575H2.13358V5.56583H2.73358ZM2.2439 6.24066C2.33412 6.18516 2.44486 6.10514 2.537 6.00626C2.6221 5.91493 2.73358 5.76236 2.73358 5.56583H2.13358C2.13358 5.54721 2.13905 5.54063 2.13459 5.54923C2.12996 5.55816 2.11912 5.5746 2.09803 5.59723C2.05498 5.64344 1.99229 5.691 1.92951 5.72962L2.2439 6.24066ZM1.63323 7.49509C1.63323 6.94999 1.82384 6.49994 2.24428 6.24042L1.92913 5.72985C1.28001 6.13052 1.03323 6.81082 1.03323 7.49509H1.63323ZM3.27205 9.07841C2.41655 9.07841 1.63323 8.30408 1.63323 7.49509H1.03323C1.03323 8.65149 2.10144 9.67841 3.27205 9.67841V9.07841ZM4.86126 7.49509C4.86126 8.31414 4.11877 9.07841 3.27205 9.07841V9.67841C4.45421 9.67841 5.46126 8.64143 5.46126 7.49509H4.86126ZM5.62253 6.69817C5.14158 6.69817 4.86126 7.08928 4.86126 7.49509H5.46126C5.46126 7.42183 5.48486 7.37133 5.50999 7.34306C5.53205 7.31824 5.56527 7.29817 5.62253 7.29817V6.69817ZM6.38381 7.49509C6.38381 7.29428 6.3188 7.09621 6.18395 6.94437C6.04595 6.78898 5.84834 6.69817 5.62253 6.69817V7.29817C5.68066 7.29817 5.71369 7.31842 5.73534 7.3428C5.76014 7.37073 5.78381 7.42112 5.78381 7.49509H6.38381ZM7.97301 9.07841C7.12712 9.07841 6.38381 8.31405 6.38381 7.49509H5.78381C5.78381 8.64153 6.79187 9.67841 7.97301 9.67841V9.07841ZM9.56314 7.49509C9.56314 8.31395 8.81992 9.07841 7.97301 9.07841V9.67841C9.15498 9.67841 10.1631 8.64162 10.1631 7.49509H9.56314ZM10.3244 6.69817C9.84216 6.69817 9.56314 7.08971 9.56314 7.49509H10.1631C10.1631 7.42144 10.1868 7.37097 10.2117 7.3429C10.2334 7.31839 10.2665 7.29817 10.3244 7.29817V6.69817ZM11.0857 7.49509C11.0857 7.08801 10.8033 6.69817 10.3244 6.69817V7.29817C10.3809 7.29817 10.4143 7.31806 10.4367 7.3432C10.462 7.37163 10.4857 7.42211 10.4857 7.49509H11.0857ZM12.6744 9.07841C11.8282 9.07841 11.0857 8.31419 11.0857 7.49509H10.4857C10.4857 8.64139 11.4927 9.67841 12.6744 9.67841V9.07841ZM14.2636 7.49509C14.2636 8.31391 13.5191 9.07841 12.6744 9.07841V9.67841C13.8541 9.67841 14.8636 8.64167 14.8636 7.49509H14.2636ZM15.0249 6.69817C14.5427 6.69817 14.2636 7.08971 14.2636 7.49509H14.8636C14.8636 7.42144 14.8873 7.37097 14.9122 7.3429C14.9339 7.31839 14.967 7.29817 15.0249 7.29817V6.69817ZM15.7862 7.49509C15.7862 7.08822 15.5044 6.69817 15.0249 6.69817V7.29817C15.0817 7.29817 15.1151 7.31813 15.1373 7.34312C15.1625 7.37145 15.1862 7.42192 15.1862 7.49509H15.7862Z" fill="black"/>
</svg>
