<svg width="18" height="22" viewBox="0 0 18 22" fill="none" xmlns="http://www.w3.org/2000/svg">
<path d="M11.1426 0.928619H3.14258C2.61215 0.928619 2.10344 1.13933 1.72836 1.51441C1.35329 1.88948 1.14258 2.39819 1.14258 2.92862V18.9286C1.14258 19.4591 1.35329 19.9678 1.72836 20.3428C2.10344 20.7179 2.61215 20.9286 3.14258 20.9286H15.1426C15.673 20.9286 16.1817 20.7179 16.5568 20.3428C16.9319 19.9678 17.1426 19.4591 17.1426 18.9286V6.92862L11.1426 0.928619Z" stroke="black" stroke-width="1.5" stroke-linecap="round" stroke-linejoin="round"/>
<path d="M11.1426 0.928619V6.92862H17.1426" stroke="black" stroke-width="1.5" stroke-linecap="round" stroke-linejoin="round"/>
<path d="M13.1426 11.9286H5.14258" stroke="black" stroke-width="1.5" stroke-linecap="round" stroke-linejoin="round"/>
<path d="M13.1426 15.9286H5.14258" stroke="black" stroke-width="1.5" stroke-linecap="round" stroke-linejoin="round"/>
<path d="M7.14258 7.92862H6.14258H5.14258" stroke="black" stroke-width="1.5" stroke-linecap="round" stroke-linejoin="round"/>
</svg>
