<svg width="18" height="19" viewBox="0 0 18 19" fill="none" xmlns="http://www.w3.org/2000/svg">
<path d="M17.1321 9.63459C17.0567 9.47997 17.0567 9.30264 17.1321 9.14805L17.8318 7.71497C18.2213 6.91705 17.9127 5.96601 17.1291 5.54975L15.7219 4.80212C15.57 4.72149 15.4659 4.57798 15.4362 4.40854L15.161 2.83738C15.0077 1.96261 14.1996 1.37478 13.3214 1.49918L11.744 1.72258C11.5738 1.74665 11.4054 1.69184 11.2819 1.57221L10.1369 0.463172C9.49938 -0.154372 8.50062 -0.154409 7.86311 0.463172L6.71808 1.57232C6.59453 1.69199 6.42618 1.74668 6.25596 1.72269L4.67856 1.49929C3.80015 1.37482 2.99227 1.96272 2.83901 2.83749L2.56378 4.40858C2.53407 4.57806 2.42998 4.72153 2.27818 4.8022L0.870898 5.54983C0.0873464 5.96605 -0.221297 6.91716 0.168244 7.71508L0.867857 9.14812C0.943333 9.30275 0.943333 9.48008 0.867857 9.63467L0.168208 11.0677C-0.221333 11.8656 0.0873099 12.8167 0.870862 13.2329L2.27815 13.9806C2.42998 14.0612 2.53407 14.2047 2.56378 14.3741L2.83901 15.9453C2.97853 16.7416 3.66052 17.3001 4.44433 17.3C4.52153 17.3 4.59986 17.2946 4.67859 17.2835L6.25599 17.0601C6.42611 17.0359 6.59457 17.0908 6.71811 17.2104L7.86311 18.3195C8.18193 18.6283 8.59089 18.7826 9 18.7826C9.409 18.7826 9.81821 18.6282 10.1369 18.3195L11.2819 17.2104C11.4055 17.0908 11.5739 17.0361 11.744 17.0601L13.3214 17.2835C14.2 17.4079 15.0077 16.82 15.161 15.9453L15.4363 14.3742C15.466 14.2047 15.5701 14.0612 15.7219 13.9806L17.1291 13.2329C17.9127 12.8167 18.2213 11.8656 17.8318 11.0677L17.1321 9.63459Z" fill="#56AD60"/>
<path d="M12.8442 6.4316C12.5966 6.18776 12.2117 6.20687 11.9854 6.4764L8.27538 10.903L6.93021 9.82305C6.69361 9.56339 6.30924 9.55944 6.07022 9.81514C5.83058 10.0702 5.82693 10.4873 6.06292 10.747L7.85936 12.3239C7.97431 12.4504 8.13 12.5209 8.29299 12.5209C8.29664 12.5209 8.3009 12.5209 8.30455 12.5216C8.47242 12.5177 8.63056 12.4399 8.74306 12.3055L12.8855 7.36282C13.1112 7.09259 13.0929 6.6761 12.8442 6.4316Z" fill="white"/>
</svg>
