<svg width="17" height="17" viewBox="0 0 17 17" fill="none" xmlns="http://www.w3.org/2000/svg">
<path fill-rule="evenodd" clip-rule="evenodd" d="M14.0539 2.76489C13.7162 2.45793 13.2005 2.45793 12.8628 2.76489C12.8495 2.77694 12.8322 2.79401 12.7715 2.85476L12.554 3.07223C12.5369 3.83452 13.1654 4.46311 13.9277 4.44593L14.1452 4.22846C14.2059 4.16771 14.223 4.15042 14.235 4.13717C14.542 3.79947 14.542 3.28377 14.235 2.94606C14.223 2.93281 14.2059 2.91552 14.1452 2.85476C14.0844 2.79402 14.0671 2.77694 14.0539 2.76489ZM13.0275 5.34617C12.4004 5.10134 11.8986 4.5996 11.6538 3.97247L9.76353 5.86272C9.42126 6.205 9.29255 6.33595 9.18914 6.47977C9.09224 6.6146 9.01021 6.7595 8.94448 6.91198C8.87435 7.07462 8.82824 7.25233 8.71087 7.72196L8.52182 8.47817L9.27796 8.28912C9.74759 8.17168 9.92531 8.12564 10.0879 8.05551C10.2404 7.98978 10.3854 7.90768 10.5202 7.81078C10.664 7.70736 10.7949 7.57873 11.1373 7.23639L13.0275 5.34617ZM12.1481 1.97866C12.891 1.30334 14.0256 1.30334 14.7685 1.97866C14.8031 2.01007 14.8398 2.04677 14.8874 2.0944L14.8875 2.09452V2.09454L14.8965 2.10346L14.9054 2.11237V2.11239C14.9531 2.16008 14.9898 2.19681 15.0213 2.23139C15.6966 2.97434 15.6966 4.10889 15.0213 4.85184C14.9898 4.88641 14.9531 4.92314 14.9054 4.97082V4.97085L14.8965 4.97976L11.8885 7.98772L11.8573 8.01896C11.5566 8.31972 11.3627 8.51366 11.1404 8.67353C10.9433 8.81513 10.7315 8.93505 10.5087 9.03117C10.2572 9.13961 9.99111 9.20606 9.57858 9.30919H9.57851L9.53565 9.31989L7.92051 9.72364C7.73946 9.7689 7.548 9.71591 7.41604 9.58395C7.28407 9.45199 7.23102 9.26046 7.27628 9.07941L7.6801 7.46426L7.6908 7.42141C7.79386 7.00883 7.86037 6.74277 7.96882 6.49128C8.06487 6.26844 8.18479 6.05664 8.32646 5.8596C8.48633 5.63722 8.68027 5.44333 8.98096 5.14266V5.14265L8.98103 5.14265L9.01227 5.11141L12.0202 2.10346L12.0291 2.09455L12.0291 2.09452V2.0945C12.0768 2.04682 12.1136 2.01009 12.1481 1.97866ZM6.63496 1.5937H6.65833H8.5C8.79339 1.5937 9.03125 1.83155 9.03125 2.12495C9.03125 2.41835 8.79339 2.6562 8.5 2.6562H6.65833C5.85616 2.6562 5.28648 2.65661 4.84066 2.69304C4.40106 2.72896 4.12887 2.79722 3.91321 2.90711C3.48005 3.12782 3.12787 3.48 2.90716 3.91316C2.79727 4.12883 2.729 4.40101 2.69309 4.84061C2.65666 5.28643 2.65625 5.85611 2.65625 6.65828V10.3416C2.65625 11.1438 2.65666 11.7135 2.69309 12.1593C2.729 12.5989 2.79727 12.871 2.90716 13.0867C3.12787 13.5199 3.48005 13.8721 3.91321 14.0928C4.12887 14.2026 4.40106 14.2709 4.84066 14.3068C5.28648 14.3433 5.85616 14.3437 6.65833 14.3437H10.3417C11.1439 14.3437 11.7135 14.3433 12.1593 14.3068C12.5989 14.2709 12.8711 14.2026 13.0868 14.0928C13.52 13.8721 13.8721 13.5199 14.0929 13.0867C14.2027 12.871 14.271 12.5989 14.3069 12.1593C14.3433 11.7135 14.3438 11.1438 14.3438 10.3416V8.49992C14.3438 8.20653 14.5816 7.96867 14.875 7.96867C15.1684 7.96867 15.4062 8.20653 15.4062 8.49992V10.3416V10.365C15.4062 11.1386 15.4062 11.7517 15.3659 12.2458C15.3246 12.7511 15.2384 13.1787 15.0395 13.5691C14.717 14.2022 14.2022 14.7169 13.5692 15.0395C13.1788 15.2384 12.7512 15.3246 12.2459 15.3659C11.7517 15.4062 11.1387 15.4062 10.365 15.4062H10.3417H6.65833H6.63494C5.86135 15.4062 5.24829 15.4062 4.75415 15.3659C4.24883 15.3246 3.82126 15.2384 3.43085 15.0395C2.79776 14.7169 2.28304 14.2022 1.96047 13.5691C1.76154 13.1787 1.67541 12.7511 1.63412 12.2458C1.59374 11.7517 1.59375 11.1386 1.59375 10.365V10.365V10.3416V6.65828V6.6349V6.63486C1.59375 5.86128 1.59374 5.24823 1.63412 4.7541C1.67541 4.24878 1.76154 3.82121 1.96047 3.43079C2.28304 2.79771 2.79776 2.28299 3.43085 1.96042C3.82126 1.76149 4.24883 1.67535 4.75415 1.63406C5.2483 1.59369 5.86136 1.5937 6.63496 1.5937Z" fill="#29668B"/>
</svg>
