<svg width="18" height="18" viewBox="0 0 18 18" xmlns="http://www.w3.org/2000/svg">
    <path d="M7.29 2.813a.188.188 0 0 0-.177.128l-.333.997h4.44l-.333-.997a.188.188 0 0 0-.178-.128H7.291zm5.115 1.124-.45-1.352a1.312 1.312 0 0 0-1.246-.897H7.291c-.565 0-1.067.361-1.246.897l-.45 1.353H2.25a.563.563 0 0 0 0 1.124h.974l.575 8.625a2.813 2.813 0 0 0 2.806 2.626h4.79a2.812 2.812 0 0 0 2.806-2.626l.575-8.624h.974a.563.563 0 0 0 0-1.125H12.405zm1.244 1.126H4.35l.57 8.55c.06.886.796 1.575 1.684 1.575h4.79c.888 0 1.625-.69 1.684-1.576l.57-8.55zM7.5 6.938c.31 0 .563.251.563.562v5.25a.563.563 0 0 1-1.126 0V7.5c0-.31.252-.563.563-.563zm3.563.562a.563.563 0 0 0-1.126 0v3a.563.563 0 0 0 1.126 0v-3z" fill="#000" fill-rule="evenodd"/>
</svg>
