<svg width="20" height="20" viewBox="0 0 20 20" xmlns="http://www.w3.org/2000/svg">
    <path d="M8.1 3.125c-.089 0-.169.057-.197.142l-.37 1.108h4.933l-.369-1.108a.208.208 0 0 0-.198-.142H8.101zm5.684 1.25-.501-1.503a1.458 1.458 0 0 0-1.384-.997H8.101c-.628 0-1.185.402-1.384.997l-.5 1.503H2.5a.625.625 0 0 0 0 1.25h1.082l.639 9.583a3.125 3.125 0 0 0 3.118 2.917h5.322a3.125 3.125 0 0 0 3.118-2.917l.64-9.583H17.5a.625.625 0 0 0 0-1.25H13.783zm1.381 1.25H4.835l.633 9.5c.066.985.884 1.75 1.87 1.75h5.323c.987 0 1.805-.765 1.871-1.75l.633-9.5zM8.333 7.708c.346 0 .625.28.625.625v5.834a.625.625 0 0 1-1.25 0V8.333c0-.345.28-.625.625-.625zm3.959.625a.625.625 0 0 0-1.25 0v3.334a.625.625 0 0 0 1.25 0V8.333z" fill="#29668B" fill-rule="evenodd"/>
</svg>
