<svg width="14" height="14" viewBox="0 0 14 14" fill="none" xmlns="http://www.w3.org/2000/svg">
<g clip-path="url(#clip0_9905_160125)">
<path d="M10.6907 13.125C10.1569 13.125 9.40716 12.9319 8.28442 12.3047C6.91915 11.5391 5.86313 10.8322 4.50524 9.47788C3.19603 8.16948 2.55892 7.32237 1.66724 5.6998C0.659893 3.86776 0.831612 2.90745 1.02356 2.49702C1.25216 2.00647 1.58958 1.71308 2.02571 1.42187C2.27343 1.25956 2.53558 1.12043 2.80884 1.00624C2.83618 0.994483 2.86161 0.983272 2.88431 0.973155C3.01966 0.912178 3.22474 0.82003 3.4845 0.918467C3.65786 0.983545 3.81263 1.11671 4.05489 1.35597C4.55173 1.84597 5.23067 2.93726 5.48114 3.47319C5.64931 3.8344 5.7606 4.07284 5.76087 4.34026C5.76087 4.65335 5.60337 4.89479 5.41224 5.15538C5.37642 5.20433 5.34087 5.25108 5.30642 5.29647C5.09833 5.56991 5.05267 5.64894 5.08274 5.79003C5.14372 6.07358 5.59845 6.91769 6.34575 7.66335C7.09306 8.40901 7.91282 8.83503 8.19747 8.89573C8.34458 8.92718 8.42524 8.8796 8.70743 8.66413C8.7479 8.63323 8.78946 8.60124 8.83294 8.56925C9.12442 8.35241 9.35466 8.19901 9.66036 8.19901H9.662C9.92806 8.19901 10.1558 8.3144 10.5332 8.50472C11.0254 8.753 12.1495 9.42319 12.6425 9.92058C12.8823 10.1623 13.016 10.3165 13.0813 10.4896C13.1798 10.7502 13.0871 10.9544 13.0266 11.0912C13.0165 11.1139 13.0053 11.1387 12.9936 11.1664C12.8785 11.4391 12.7385 11.7007 12.5755 11.9478C12.2848 12.3826 11.9903 12.7192 11.4987 12.9481C11.2462 13.0675 10.9699 13.128 10.6907 13.125Z" fill="#888888"/>
</g>
<defs>
<clipPath id="clip0_9905_160125">
<rect width="14" height="14" fill="white"/>
</clipPath>
</defs>
</svg>
