<svg width="18" height="18" viewBox="0 0 18 18" xmlns="http://www.w3.org/2000/svg">
    <path d="M4.156 6.155a.473.473 0 0 1 .667 0 .47.47 0 0 1 0 .666L3.112 8.53h7.671a.471.471 0 1 1 0 .942H3.112l1.711 1.708a.47.47 0 0 1 0 .666.473.473 0 0 1-.667 0L1.638 9.333a.47.47 0 0 1 0-.666l2.518-2.512zm8.502-3.608c.59 0 1.001 0 1.322.026.314.026.494.074.631.145.293.15.531.39.68.686.07.137.118.32.144.636.026.323.027.737.027 1.332v7.256c0 .595 0 1.01-.027 1.332-.026.317-.074.499-.143.636-.15.296-.388.536-.681.686-.137.07-.317.119-.631.145-.32.026-.732.026-1.322.026H9.612c-.59 0-1.002 0-1.322-.026-.314-.026-.495-.074-.632-.145a1.564 1.564 0 0 1-.68-.686c-.07-.137-.118-.32-.144-.636-.026-.323-.026-.737-.026-1.332v-.837a.521.521 0 0 0-.52-.524.521.521 0 0 0-.519.524v.859c0 .567 0 1.025.03 1.395.031.382.097.717.253 1.027.25.492.646.892 1.135 1.143.307.158.64.224 1.018.255.368.03.822.03 1.384.03H12.68c.563 0 1.017 0 1.384-.03.379-.031.71-.097 1.019-.255.488-.251.885-.651 1.134-1.143.157-.31.222-.645.253-1.027.03-.37.03-.828.03-1.395V5.35c0-.567 0-1.025-.03-1.395-.03-.382-.096-.717-.253-1.026a2.607 2.607 0 0 0-1.134-1.144c-.308-.158-.64-.224-1.019-.255-.367-.03-.821-.03-1.384-.03H9.589c-.562 0-1.016 0-1.384.03-.378.031-.71.097-1.018.255-.489.251-.886.651-1.135 1.144-.156.31-.222.644-.253 1.026-.03.37-.03.828-.03 1.395v.859c0 .29.233.524.52.524.286 0 .519-.235.519-.524v-.837c0-.595 0-1.01.026-1.332.026-.317.074-.499.144-.636.149-.296.387-.536.68-.686.137-.07.318-.119.632-.145.32-.026.731-.026 1.322-.026h3.046z" fill="#151E28" fill-rule="evenodd"/>
</svg>
