<svg width="17" height="17" viewBox="0 0 17 17" xmlns="http://www.w3.org/2000/svg">
    <path d="M10.859 3.853c.592-.444 1.007-.754 1.334-.956.334-.206.492-.242.575-.24.266.005.515.13.68.339.05.066.116.213.152.604.035.383.035.901.035 1.642v5.1c0 .74 0 1.258-.035 1.64-.036.392-.101.54-.153.605a.885.885 0 0 1-.679.34c-.083.002-.24-.035-.575-.24-.327-.203-.742-.513-1.334-.957L9.03 10.36V5.223l1.828-1.37zm3.839 6.542c0 .694 0 1.253-.04 1.684-.04.435-.125.845-.374 1.163-.36.46-.909.735-1.493.747-.405.008-.784-.17-1.156-.398-.373-.23-.827-.57-1.392-.994l-.022-.017-1.898-1.424H6.906v2.657a1.594 1.594 0 0 1-3.187 0v-2.698a3.365 3.365 0 0 1 .531-6.688h4.073l1.898-1.424.022-.016c.565-.424 1.019-.764 1.392-.995.372-.229.75-.406 1.156-.398a1.948 1.948 0 0 1 1.493.747c.25.318.334.728.374 1.163.04.432.04.99.04 1.684a2.657 2.657 0 0 1 0 5.207zm0-1.1a1.594 1.594 0 0 0 0-3.007v3.007zm-6.73.799V5.49H4.25a2.302 2.302 0 0 0 0 4.604h3.719zm-3.187 1.062v2.657a.531.531 0 0 0 1.063 0v-2.657H4.78z" fill="#151E28" fill-rule="evenodd"/>
</svg>
