<svg width="18" height="18" viewBox="0 0 18 18" xmlns="http://www.w3.org/2000/svg">
    <path d="M1.5.938a.563.563 0 0 0 0 1.125h.588c.741 0 1.395.483 1.613 1.19l2.023 6.574a2.812 2.812 0 0 0 2.688 1.986h4.914a2.813 2.813 0 0 0 2.694-2.005l1.19-3.965a2.063 2.063 0 0 0-1.976-2.655H4.858l-.082-.265A2.813 2.813 0 0 0 2.088.937H1.5zm5.299 8.558L5.204 4.312h10.03a.937.937 0 0 1 .898 1.207l-1.19 3.966a1.688 1.688 0 0 1-1.616 1.203H8.412c-.741 0-1.395-.484-1.613-1.192zm1.451 4.566a.938.938 0 1 0 0 1.875.938.938 0 0 0 0-1.875zM6.187 15a2.063 2.063 0 1 1 4.126 0 2.063 2.063 0 0 1-4.126 0zm8.063-.938a.938.938 0 1 0 0 1.875.938.938 0 0 0 0-1.875zM12.187 15a2.063 2.063 0 1 1 4.126 0 2.063 2.063 0 0 1-4.125 0z" fill="#151E28" fill-rule="evenodd"/>
</svg>
