<svg width="18" height="18" viewBox="0 0 18 18" xmlns="http://www.w3.org/2000/svg">
    <path d="M6.375 5.063A2.437 2.437 0 1 1 8.813 7.5a2.445 2.445 0 0 1-2.438-2.438zM8.813 1.5a3.563 3.563 0 1 0 0 7.125 3.563 3.563 0 0 0 0-7.125zM4.125 14.063a2.445 2.445 0 0 1 2.438-2.438h4.5a2.445 2.445 0 0 1 2.437 2.438c0 .517-.42.937-.938.937h-7.5a.937.937 0 0 1-.937-.938zM6.563 10.5A3.563 3.563 0 0 0 3 14.063c0 1.139.923 2.062 2.063 2.062h7.5c1.139 0 2.062-.923 2.062-2.063a3.563 3.563 0 0 0-3.563-3.562h-4.5z" fill="#151E28" fill-rule="evenodd"/>
</svg>
