<svg width="12" height="12" viewBox="0 0 12 12" fill="none" xmlns="http://www.w3.org/2000/svg">
<circle cx="5.86414" cy="3.62781" r="0.810185" fill="#151E28"/>
<path d="M6.53833 5.84754V8.51791C6.53833 8.89019 6.23654 9.19198 5.86426 9.19198C5.49198 9.19198 5.19019 8.89019 5.19019 8.51791V5.84754C5.19019 5.47526 5.49198 5.17346 5.86426 5.17346C6.23654 5.17346 6.53833 5.47526 6.53833 5.84754V5.84754Z" fill="#151E28"/>
<path fill-rule="evenodd" clip-rule="evenodd" d="M0.0310059 5.99996C0.0310059 2.7784 2.64278 0.166626 5.86434 0.166626C9.08589 0.166626 11.6977 2.7784 11.6977 5.99996C11.6977 9.22151 9.08589 11.8333 5.86434 11.8333C2.64278 11.8333 0.0310059 9.22151 0.0310059 5.99996ZM4.60722 10.6652C6.27306 11.1065 8.04759 10.6202 9.25571 9.39133C10.4846 8.18321 10.9709 6.40868 10.5296 4.74284C10.0883 3.07701 8.78729 1.77596 7.12146 1.33467C5.45562 0.893379 3.68109 1.37969 2.47297 2.60859C1.24407 3.81671 0.757759 5.59124 1.19905 7.25708C1.64034 8.92291 2.94139 10.224 4.60722 10.6652Z" fill="#151E28"/>
</svg>
